<svg xmlns="http://www.w3.org/2000/svg" width="24.358" height="24.592" viewBox="0 0 24.358 24.592">
  <g id="email" transform="translate(-1.25 0.342)">
    <g id="Group_105" data-name="Group 105" transform="translate(1.5)">
      <g id="Group_104" data-name="Group 104" transform="translate(0)">
        <path id="Path_166" data-name="Path 166" d="M21.531,7.559l-.014.019V2.065H15.645L13.434,0,11.223,2.065H5.35V7.54L1.5,11.131V24H25.358V11.135Zm-.014,1.035,2.844,2.655-2.844,1.9Zm-8.083-7.54L14.52,2.065H12.347ZM6.12,2.835H20.747V13.663l-7.313,4.871L6.12,13.663ZM5.35,8.594v4.554l-2.844-1.9ZM2.275,12.019l6.4,4.266-6.4,6.4ZM2.818,23.23l6.51-6.51,4.106,2.74,4.106-2.74,6.51,6.51Zm21.78-.543-6.4-6.4,6.4-4.266Z" transform="translate(-1.5)" fill="#e7c68e" stroke="#e7c68e" stroke-width="0.5"/>
      </g>
    </g>
    <g id="Group_107" data-name="Group 107" transform="translate(9.516 5.123)">
      <g id="Group_106" data-name="Group 106">
        <path id="Path_167" data-name="Path 167" d="M178.864,114.872a2.619,2.619,0,0,1-1.125.81,4.573,4.573,0,0,1-1.664.272,4.669,4.669,0,0,1-1.787-.324,2.5,2.5,0,0,1-1.211-1.025,2.926,2.926,0,0,1-.434-1.554,3.9,3.9,0,0,1,.386-1.692,2.829,2.829,0,0,1,1.149-1.258,3.61,3.61,0,0,1,1.864-.448,2.846,2.846,0,0,1,2.016.672,2.18,2.18,0,0,1,.72,1.668,2.369,2.369,0,0,1-.257,1.072,2.218,2.218,0,0,1-.667.825.913.913,0,0,1-.5.234.143.143,0,0,1-.11-.052.233.233,0,0,1-.048-.153,2.426,2.426,0,0,1,.057-.357l.61-2.908H176.8l-.1.448a1.172,1.172,0,0,0-1.068-.553,1.944,1.944,0,0,0-1.664.958,3.022,3.022,0,0,0-.534,1.74,1.712,1.712,0,0,0,.443,1.235,1.474,1.474,0,0,0,1.115.462,1.534,1.534,0,0,0,1.1-.462.555.555,0,0,0,.229.343.908.908,0,0,0,.505.119,2.455,2.455,0,0,0,2.045-1.053,3,3,0,0,0,.634-1.868,3.135,3.135,0,0,0-.419-1.6,2.848,2.848,0,0,0-1.215-1.13,3.976,3.976,0,0,0-1.816-.4,4.527,4.527,0,0,0-2.14.491,3.538,3.538,0,0,0-1.473,1.473,4.357,4.357,0,0,0-.539,2.121,4.021,4.021,0,0,0,.472,1.921,3.109,3.109,0,0,0,1.459,1.335,5.464,5.464,0,0,0,2.312.453,4.733,4.733,0,0,0,2.34-.534,2.946,2.946,0,0,0,1.244-1.287Zm-2.545-1.759a2.1,2.1,0,0,1-.372.72,1.139,1.139,0,0,1-.305.257.868.868,0,0,1-.434.114.65.65,0,0,1-.515-.243,1.151,1.151,0,0,1-.21-.758,3.066,3.066,0,0,1,.148-.882,1.635,1.635,0,0,1,.448-.767.928.928,0,0,1,.643-.272.69.69,0,0,1,.539.243,1.032,1.032,0,0,1,.214.705A3.107,3.107,0,0,1,176.319,113.114Z" transform="translate(-171.9 -108.9)" fill="#e7c68e" stroke="#e7c68e" stroke-width="0.5"/>
      </g>
    </g>
    <g id="Group_109" data-name="Group 109" transform="translate(13.048 14.377)">
      <g id="Group_108" data-name="Group 108" transform="translate(0)">
        <rect id="Rectangle_40" data-name="Rectangle 40" width="0.777" height="0.777" fill="#e7c68e" stroke="#e7c68e" stroke-width="0.5"/>
      </g>
    </g>
    <g id="Group_111" data-name="Group 111" transform="translate(14.583 14.377)">
      <g id="Group_110" data-name="Group 110" transform="translate(0)">
        <rect id="Rectangle_41" data-name="Rectangle 41" width="0.777" height="0.777" fill="#e7c68e" stroke="#e7c68e" stroke-width="0.5"/>
      </g>
    </g>
    <g id="Group_113" data-name="Group 113" transform="translate(11.508 14.377)">
      <g id="Group_112" data-name="Group 112">
        <rect id="Rectangle_42" data-name="Rectangle 42" width="0.777" height="0.777" fill="#e7c68e" stroke="#e7c68e" stroke-width="0.5"/>
      </g>
    </g>
  </g>
</svg>
