<svg xmlns="http://www.w3.org/2000/svg" width="18.397" height="24.905" viewBox="0 0 18.397 24.905">
  <path id="flag" d="M25.641,1.28c-.187-.075-4.62-1.811-8.07.018-2.733,1.451-7.531.362-8.758.048V.407A.407.407,0,0,0,8,.407v1.22c0,.006,0,.011,0,.016s0,.009,0,.014V24a.407.407,0,1,0,.813,0V14.389a21.963,21.963,0,0,0,5.031.664,8.914,8.914,0,0,0,4.109-.833c3.112-1.652,7.344,0,7.387.018a.407.407,0,0,0,.558-.378V1.657A.406.406,0,0,0,25.641,1.28Zm-.558,12.007c-1.326-.422-4.737-1.259-7.512.214-2.733,1.45-7.529.363-8.758.048V2.186c1.567.391,6.256,1.36,9.139-.17,2.671-1.417,6.165-.4,7.131-.074Z" transform="translate(-7.75 0.25)" fill="#e7c68e" stroke="#e7c68e" stroke-width="0.5"/>
</svg>
