<svg id="hide_1_" data-name="hide(1)" xmlns="http://www.w3.org/2000/svg" width="30.701" height="23.025" viewBox="0 0 30.701 23.025">
  <g id="Group_87" data-name="Group 87" transform="translate(11.546 7.707)">
    <g id="Group_86" data-name="Group 86" transform="translate(0 0)">
      <path id="Path_158" data-name="Path 158" d="M199.972,192.729a.64.64,0,0,0-.9.9,3.837,3.837,0,1,1-5.426,5.426.64.64,0,0,0-.9.9,5.116,5.116,0,1,0,7.235-7.235Z" transform="translate(-192.55 -192.542)" fill="#e7c68e"/>
    </g>
  </g>
  <g id="Group_89" data-name="Group 89" transform="translate(10.234 6.395)">
    <g id="Group_88" data-name="Group 88" transform="translate(0 0)">
      <path id="Path_159" data-name="Path 159" d="M176.676,170.747a5.066,5.066,0,0,0-6.008,5.028,5.008,5.008,0,0,0,.09.892.64.64,0,0,0,.628.528.567.567,0,0,0,.113-.01.64.64,0,0,0,.518-.741,3.709,3.709,0,0,1-.069-.669,3.791,3.791,0,0,1,4.507-3.77.639.639,0,0,0,.223-1.259Z" transform="translate(-170.668 -170.659)" fill="#e7c68e"/>
    </g>
  </g>
  <g id="Group_91" data-name="Group 91" transform="translate(8.001 4.344)">
    <g id="Group_90" data-name="Group 90">
      <path id="Path_160" data-name="Path 160" d="M155.983,143.215a31.072,31.072,0,0,0-8.377-6.682.64.64,0,0,0-.587,1.137,30.058,30.058,0,0,1,7.618,5.958c-1.525,1.651-7.525,7.675-13.851,7.675a14.748,14.748,0,0,1-6.432-1.541.639.639,0,0,0-.555,1.151,16,16,0,0,0,6.987,1.669c7.881,0,14.9-8.192,15.2-8.541A.639.639,0,0,0,155.983,143.215Z" transform="translate(-133.435 -136.461)" fill="#e7c68e"/>
    </g>
  </g>
  <g id="Group_93" data-name="Group 93" transform="translate(0 2.557)">
    <g id="Group_92" data-name="Group 92" transform="translate(0 0)">
      <path id="Path_161" data-name="Path 161" d="M19.547,107.4a13.207,13.207,0,0,0-4.2-.737c-7.881,0-14.9,8.192-15.2,8.541a.64.64,0,0,0-.036.779,23.746,23.746,0,0,0,5.868,5.563.635.635,0,0,0,.885-.18.638.638,0,0,0-.179-.885,23.392,23.392,0,0,1-5.223-4.829c1.472-1.6,7.513-7.71,13.884-7.71a11.973,11.973,0,0,1,3.789.669.631.631,0,0,0,.81-.4A.638.638,0,0,0,19.547,107.4Z" transform="translate(0 -106.659)" fill="#e7c68e"/>
    </g>
  </g>
  <g id="Group_95" data-name="Group 95" transform="translate(3.837 0)">
    <g id="Group_94" data-name="Group 94">
      <path id="Path_162" data-name="Path 162" d="M86.834,64.2a.64.64,0,0,0-.9,0L64.183,85.941a.64.64,0,0,0,.9.9L86.834,65.1A.64.64,0,0,0,86.834,64.2Z" transform="translate(-63.996 -64.008)" fill="#e7c68e"/>
    </g>
  </g>
</svg>
