<svg xmlns="http://www.w3.org/2000/svg" width="13" height="19" viewBox="0 0 13 19">
  <g id="location-pin" transform="translate(-79.268)">
    <path id="Path_1" data-name="Path 1" d="M85.753,0h.03a6.241,6.241,0,0,1,6.485,5.949c0,2.15-1.067,4.988-3.172,8.434a46.67,46.67,0,0,1-3.158,4.531.241.241,0,0,1-.187.086h-.006a.239.239,0,0,1-.188-.1c-.016-.022-1.587-2.2-3.136-4.861-2.092-3.593-3.152-6.317-3.152-8.095A6.242,6.242,0,0,1,85.753,0ZM82.76,6.094a3.019,3.019,0,0,0,6.017,0,3.019,3.019,0,0,0-6.017,0Z" transform="translate(0)" fill="#e7c68e"/>
  </g>
</svg>
