<svg xmlns="http://www.w3.org/2000/svg" width="26.021" height="24" viewBox="0 0 26.021 24">
  <g id="print" transform="translate(0 -9.633)">
    <path id="Path_163" data-name="Path 163" d="M24.185,15.178H21.271V10.42a.787.787,0,0,0-.787-.787H5.537a.787.787,0,0,0-.787.787v4.759H1.836A1.838,1.838,0,0,0,0,17.014V27.108a1.838,1.838,0,0,0,1.836,1.836H4.75v3.9a.787.787,0,0,0,.787.787H20.484a.787.787,0,0,0,.787-.787v-3.9h2.915a1.838,1.838,0,0,0,1.836-1.836V17.014A1.838,1.838,0,0,0,24.185,15.178ZM6.324,11.206H19.7v3.972H6.324ZM19.7,32.06H6.324v-7.8H19.7Zm4.75-4.952a.266.266,0,0,1-.262.262H21.271v-3.9a.787.787,0,0,0-.787-.787H5.537a.787.787,0,0,0-.787.787v3.9H1.836a.266.266,0,0,1-.262-.262V17.014a.266.266,0,0,1,.262-.262H24.185a.266.266,0,0,1,.262.262V27.108Z" transform="translate(0 0)" fill="#e7c68e"/>
    <circle id="Ellipse_8" data-name="Ellipse 8" cx="1.119" cy="1.119" r="1.119" transform="translate(19.365 18.598)" fill="#e7c68e"/>
    <path id="Path_164" data-name="Path 164" d="M90.352,163.822H83.194a.787.787,0,0,0,0,1.573h7.159a.787.787,0,1,0,0-1.573Z" transform="translate(-73.763 -138.015)" fill="#e7c68e"/>
    <path id="Path_165" data-name="Path 165" d="M90.352,193.623H83.194a.787.787,0,1,0,0,1.573h7.159a.787.787,0,1,0,0-1.573Z" transform="translate(-73.763 -164.69)" fill="#e7c68e"/>
  </g>
</svg>
