<svg xmlns="http://www.w3.org/2000/svg" width="30" height="27" viewBox="0 0 30 27">
  <g id="email_1_" data-name="email(1)" transform="translate(0 -15.243)">
    <g id="Group_475" data-name="Group 475" transform="translate(0 15.243)">
      <path id="Path_507" data-name="Path 507" d="M1.79,1.1H28.017l-13.091,8Z" fill="#e7c68e"/>
      <circle id="Ellipse_30" data-name="Ellipse 30" cx="6" cy="6" r="6" transform="translate(9 14)" fill="#e7c68e"/>
      <path id="Path_504" data-name="Path 504" d="M29.121,15.243H.879A.861.861,0,0,0,0,16.084v18.5a.861.861,0,0,0,.879.841H7.97c0,.028,0,.057,0,.085A6.893,6.893,0,0,0,15,42.243a6.893,6.893,0,0,0,7.031-6.729c0-.028,0-.057,0-.085h7.091A.861.861,0,0,0,30,34.588v-18.5a.861.861,0,0,0-.879-.841Zm-2.527,1.682L15,24.212,3.406,16.925ZM15,40.561a5.051,5.051,0,1,1,0-10.093,5.051,5.051,0,1,1,0,10.093Zm13.242-6.814H21.785A7,7,0,0,0,15,28.785a7,7,0,0,0-6.785,4.962H1.758v-15.9l12.716,8.089a.911.911,0,0,0,1.052,0l12.716-8.089Z" transform="translate(0 -15.243)" fill="#e7c68e"/>
      <g id="check" transform="translate(11 17.016)">
        <g id="Group_476" data-name="Group 476">
          <path id="Path_508" data-name="Path 508" d="M0,3.246a.912.912,0,0,1,1.072-.528A1.87,1.87,0,0,1,2.143,3.925C4.122,1.887,5.771.453,7.749,0,8,0,8.079,0,7.914.151A19.071,19.071,0,0,0,2.061,6.189a.163.163,0,0,1-.247,0c-.33-.755-.577-1.51-.989-2.264C.66,3.548.412,3.246,0,3.246Z" fill-rule="evenodd"/>
        </g>
      </g>
    </g>
  </g>
</svg>
