<svg id="Location" xmlns="http://www.w3.org/2000/svg" width="15.291" height="27" viewBox="0 0 15.291 27">
  <g id="Group_477" data-name="Group 477" transform="translate(0 0)">
    <path id="Path_509" data-name="Path 509" d="M7.645,0a7.645,7.645,0,0,1,7.645,7.645c0,3.535-4.814,11.327-7.031,15.185a.709.709,0,0,1-1.228,0C4.814,18.973,0,11.181,0,7.645A7.645,7.645,0,0,1,7.645,0Zm0,3.532A4.113,4.113,0,1,1,3.532,7.645,4.112,4.112,0,0,1,7.645,3.532Z" transform="translate(0 0)" fill="#e7c68e" fill-rule="evenodd"/>
    <path id="Path_510" data-name="Path 510" d="M15.262,343.8a.655.655,0,1,1,.282-1.28,8.117,8.117,0,0,1,2.8,1.12c2.328,1.611,1.055,3.614-1.137,4.522a14.768,14.768,0,0,1-9.95,0c-2.192-.908-3.464-2.908-1.14-4.522a8.161,8.161,0,0,1,2.805-1.12.655.655,0,1,1,.282,1.28,6.827,6.827,0,0,0-2.338.92c-1.41.987-.239,1.761.894,2.23a13.519,13.519,0,0,0,8.943,0c1.13-.468,2.308-1.247.893-2.229A6.781,6.781,0,0,0,15.262,343.8Z" transform="translate(-4.589 -322.024)" fill="#e7c68e"/>
  </g>
</svg>
