<svg id="smartphone" xmlns="http://www.w3.org/2000/svg" width="27" height="27" viewBox="0 0 27 27">
  <path id="Path_505" data-name="Path 505" d="M24.927,7.054,19.021,5.045a.829.829,0,0,0-.542,0L12.573,7.054a.841.841,0,0,0-.573.8v4.52c0,5.517,6.158,8.2,6.42,8.31a.858.858,0,0,0,.33.066.839.839,0,0,0,.33-.067c.262-.111,6.42-2.792,6.42-8.309V7.853a.841.841,0,0,0-.573-.8Z" transform="translate(1.5 0.625)" fill="#e7c68e"/>
  <path id="Path_506" data-name="Path 506" d="M18,3.971v-.6A3.385,3.385,0,0,0,14.625,0H3.375A3.385,3.385,0,0,0,0,3.375v20.25A3.385,3.385,0,0,0,3.375,27h11.25A3.385,3.385,0,0,0,18,23.625v-.743a15.574,15.574,0,0,1-2.25-1.5V22.5H2.25V3.375A1.128,1.128,0,0,1,3.375,2.25h11.25A1.128,1.128,0,0,1,15.75,3.375V4.736Z" fill="#e7c68e"/>
  <g id="check" transform="translate(16 10.016)">
    <g id="Group_476" data-name="Group 476">
      <path id="Path_508" data-name="Path 508" d="M0,3.246a.912.912,0,0,1,1.072-.528A1.87,1.87,0,0,1,2.143,3.925C4.122,1.887,5.771.453,7.749,0,8,0,8.079,0,7.914.151A19.071,19.071,0,0,0,2.061,6.189a.163.163,0,0,1-.247,0c-.33-.755-.577-1.51-.989-2.264C.66,3.548.412,3.246,0,3.246Z" fill-rule="evenodd"/>
    </g>
  </g>
</svg>
