<svg id="heart" xmlns="http://www.w3.org/2000/svg" width="42.538" height="37" viewBox="0 0 42.538 37">
  <g id="Group_12" data-name="Group 12">
    <path id="Path_5" data-name="Path 5" d="M31.239,30a10.168,10.168,0,0,0-6.29,2.142,14.163,14.163,0,0,0-3.68,4.36,14.162,14.162,0,0,0-3.68-4.36A10.168,10.168,0,0,0,11.3,30C4.858,30,0,35.191,0,42.075,0,49.512,6.06,54.6,15.235,62.3c1.558,1.308,3.324,2.791,5.159,4.372a1.345,1.345,0,0,0,1.75,0c1.836-1.582,3.6-3.064,5.16-4.373,9.173-7.7,15.234-12.791,15.234-20.228C42.538,35.191,37.68,30,31.239,30Z" transform="translate(0 -30)" fill="#c4c4c4"/>
  </g>
</svg>
