<svg xmlns="http://www.w3.org/2000/svg" width="35.023" height="35.021" viewBox="0 0 35.023 35.021">
  <g id="customer-support" transform="translate(0.25 0.521)">
    <path id="Path_151" data-name="Path 151" d="M.387,3.191,2.652,7.156a.566.566,0,0,0,.354.268l2.114.528,7.25,7.25.8-.8L5.808,7.039a.565.565,0,0,0-.263-.149L3.514,6.38,1.585,3,3.239,1.348,6.618,3.279l.51,2.031a.565.565,0,0,0,.149.263l7.363,7.363.8-.8-7.25-7.25L7.662,2.773a.567.567,0,0,0-.268-.355L3.429.153a.566.566,0,0,0-.68.091L.484,2.51a.566.566,0,0,0-.1.681Zm0,0" transform="translate(-0.038 -0.074)" fill="#313131" stroke="#313131" stroke-width="1"/>
    <path id="Path_152" data-name="Path 152" d="M187.242,174.52l-12.461,12.461-.8-.8,12.461-12.461Zm0,0" transform="translate(-163.346 -163.356)" fill="#313131" stroke="#313131" stroke-width="1"/>
    <path id="Path_153" data-name="Path 153" d="M53.9,399.111a.566.566,0,0,0-.486-.275h-3.4a.566.566,0,0,0-.485.275l-1.7,2.832a.566.566,0,0,0,0,.583l1.7,2.832a.566.566,0,0,0,.485.275h3.4a.567.567,0,0,0,.486-.275l1.7-2.832a.566.566,0,0,0,0-.583ZM53.1,404.5H50.339l-1.359-2.266,1.359-2.266H53.1l1.359,2.266Zm0,0" transform="translate(-44.647 -375.045)" fill="#313131" stroke="#313131" stroke-width="1"/>
    <path id="Path_154" data-name="Path 154" d="M27.461,13.6a6.773,6.773,0,0,0,6.588-8.439.566.566,0,0,0-.95-.264L29.574,8.415l-2.8-.932-.933-2.8L29.369,1.16A.567.567,0,0,0,29.1.209,6.776,6.776,0,0,0,20.664,6.8,6.648,6.648,0,0,0,20.8,8.125L8.4,20.53a6.682,6.682,0,0,0-1.327-.138,6.8,6.8,0,1,0,6.8,6.8,6.665,6.665,0,0,0-.138-1.327l2.97-2.97,1.3,1.3a.567.567,0,0,0,.8,0l.283-.283a.635.635,0,0,1,.9.9h0l-.283.283a.566.566,0,0,0,0,.8l6.757,6.757a4.571,4.571,0,1,0,6.494-6.436l-.029-.029-6.757-6.756a.566.566,0,0,0-.8,0l-.283.283a.635.635,0,0,1-.9-.9h0l.283-.283a.566.566,0,0,0,0-.8l-1.3-1.3,2.97-2.97A6.665,6.665,0,0,0,27.461,13.6Zm2.225,19.258a3.442,3.442,0,0,1-1.2-.22l4.424-4.424a3.435,3.435,0,0,1-3.219,4.644ZM23.27,18.132a1.768,1.768,0,0,0,2.492,2.489l6.356,6.362c.069.069.134.142.2.216l-4.843,4.843c-.074-.062-.147-.127-.216-.2l-6.361-6.362A1.768,1.768,0,0,0,18.4,23l-.906-.906,4.868-4.861Zm2.287-5.7L12.708,25.282a.567.567,0,0,0-.15.538A5.7,5.7,0,1,1,8.439,21.7a.571.571,0,0,0,.538-.149L21.824,8.7a.566.566,0,0,0,.149-.538,5.637,5.637,0,0,1,5.81-7.023L24.795,4.132a.566.566,0,0,0-.137.579l1.133,3.4a.567.567,0,0,0,.359.358l3.4,1.133a.566.566,0,0,0,.579-.137l2.988-2.988c.007.108.01.215.01.322a5.635,5.635,0,0,1-7.033,5.488.567.567,0,0,0-.538.149h0Zm0,0" transform="translate(0 0)" fill="#313131" stroke="#313131" stroke-width="1"/>
    <path id="Path_155" data-name="Path 155" d="M389.356,388.289l-.8.8-5.664-5.664.8-.8Zm0,0" transform="translate(-359.794 -359.802)" fill="#313131" stroke="#313131" stroke-width="1"/>
  </g>
</svg>
