<svg xmlns="http://www.w3.org/2000/svg" width="34.798" height="34.798" viewBox="0 0 34.798 34.798">
  <g id="tag" transform="translate(0.5 0.5)">
    <g id="Group_76" data-name="Group 76">
      <g id="Group_75" data-name="Group 75">
        <path id="Path_156" data-name="Path 156" d="M3.521,0h8.933a6.3,6.3,0,0,1,4.481,1.856L32.6,17.519a4.1,4.1,0,0,1,0,5.8L23.321,32.6a4.1,4.1,0,0,1-5.8,0L1.856,16.934A6.3,6.3,0,0,1,0,12.453V3.521A3.526,3.526,0,0,1,3.521,0ZM1.408,12.453A4.9,4.9,0,0,0,2.85,15.937L18.514,31.6a2.761,2.761,0,0,0,3.809,0L31.6,22.323a2.694,2.694,0,0,0,0-3.809L15.939,2.852a4.9,4.9,0,0,0-3.485-1.443H3.521A2.115,2.115,0,0,0,1.408,3.521v8.933Z" fill="#313131" stroke="#313131" stroke-width="1"/>
      </g>
    </g>
    <g id="Group_78" data-name="Group 78" transform="translate(4.225 4.225)">
      <g id="Group_77" data-name="Group 77">
        <path id="Path_157" data-name="Path 157" d="M344.855,64a3.521,3.521,0,1,1-3.521,3.521A3.525,3.525,0,0,1,344.855,64Zm0,5.633a2.112,2.112,0,1,0-2.112-2.112A2.115,2.115,0,0,0,344.855,69.633Z" transform="translate(-341.334 -64)" fill="#313131" stroke="#313131" stroke-width="1"/>
      </g>
    </g>
  </g>
</svg>
