<svg xmlns="http://www.w3.org/2000/svg" xmlns:xlink="http://www.w3.org/1999/xlink" width="46" height="46" viewBox="0 0 46 46">
  <defs>
    <linearGradient id="linear-gradient" x1="1.755" x2="-0.824" y2="1" gradientUnits="objectBoundingBox">
      <stop offset="0" stop-color="#e7c68e"/>
      <stop offset="1" stop-color="#9d7a54"/>
    </linearGradient>
  </defs>
  <g id="twitter" transform="translate(0.422)">
    <path id="Path_119" data-name="Path 119" d="M120.17,128.9a8.6,8.6,0,0,1-2.452.681l-.01-.057a4.562,4.562,0,0,0,1.809-2.469,9.133,9.133,0,0,1-2.183.913,6.3,6.3,0,0,1-.769.158,4.752,4.752,0,0,0-8.154,3.319c0,.095,0,.188.009.282a4.582,4.582,0,0,0,.086.669,13.283,13.283,0,0,1-9.655-4.822,4.7,4.7,0,0,0,1.441,6.213,4.956,4.956,0,0,1-2.206-.585,4.753,4.753,0,0,0,3.872,4.682,4.5,4.5,0,0,1-2.161.045,4.583,4.583,0,0,0,4.323,3.287,9.469,9.469,0,0,1-6.8,2.025,13.43,13.43,0,0,0,20.6-11.353q0-.139,0-.278c0-.055,0-.109,0-.165,0-.039,0-.077,0-.116A8.4,8.4,0,0,0,120.17,128.9Zm0,0" transform="translate(-85.309 -113.072)" fill="url(#linear-gradient)"/>
    <g id="Ellipse_3" data-name="Ellipse 3" transform="translate(-0.422)" fill="none" stroke="#ad8955" stroke-width="2">
      <circle cx="23" cy="23" r="23" stroke="none"/>
      <circle cx="23" cy="23" r="22" fill="none"/>
    </g>
  </g>
</svg>
