<svg xmlns="http://www.w3.org/2000/svg" width="19.5" height="14.5" viewBox="0 0 19.5 14.5">
  <g id="mail" transform="translate(0.25 -63.75)">
    <g id="Group_332" data-name="Group 332" transform="translate(0 64)">
      <path id="Path_158" data-name="Path 158" d="M17.417,64H1.583A1.571,1.571,0,0,0,0,65.556V76.444A1.571,1.571,0,0,0,1.583,78H17.417A1.571,1.571,0,0,0,19,76.444V65.556A1.571,1.571,0,0,0,17.417,64Zm-15.833.778H17.417a.766.766,0,0,1,.164.033c-1.371,1.233-5.916,5.318-7.507,6.726a.8.8,0,0,1-1.149,0c-1.59-1.408-6.136-5.493-7.507-6.725A.769.769,0,0,1,1.583,64.778ZM.792,76.444V65.556a.74.74,0,0,1,.044-.215c1.049.943,4.221,3.794,6.277,5.631-2.05,1.73-5.222,4.685-6.28,5.675A.738.738,0,0,1,.792,76.444Zm16.625.778H1.583a.769.769,0,0,1-.178-.036c1.093-1.023,4.285-4,6.3-5.688l.691.615a1.6,1.6,0,0,0,2.209,0L11.3,71.5c2.014,1.692,5.206,4.664,6.3,5.688A.768.768,0,0,1,17.417,77.222Zm.792-.778a.739.739,0,0,1-.042.2c-1.058-.991-4.23-3.946-6.28-5.675,2.057-1.837,5.228-4.687,6.277-5.631a.74.74,0,0,1,.044.215Z" transform="translate(0 -64)" stroke="#000" stroke-width="0.5"/>
    </g>
  </g>
</svg>
