<svg xmlns="http://www.w3.org/2000/svg" width="16.5" height="22" viewBox="0 0 16.5 22">
  <g id="password" transform="translate(-3)">
    <path id="Path_154" data-name="Path 154" d="M17.438,22.75H5.063A2.065,2.065,0,0,1,3,20.688V11.063A2.065,2.065,0,0,1,5.063,9H17.438A2.065,2.065,0,0,1,19.5,11.063v9.625A2.065,2.065,0,0,1,17.438,22.75ZM5.063,10.375a.688.688,0,0,0-.687.688v9.625a.688.688,0,0,0,.688.688H17.438a.688.688,0,0,0,.688-.687V11.063a.688.688,0,0,0-.687-.687Z" transform="translate(0 -0.75)"/>
    <path id="Path_155" data-name="Path 155" d="M16.313,9.625a.688.688,0,0,1-.687-.687V5.5a4.125,4.125,0,0,0-8.25,0V8.938A.688.688,0,0,1,6,8.938V5.5a5.5,5.5,0,0,1,11,0V8.938A.688.688,0,0,1,16.313,9.625Z" transform="translate(-0.25)"/>
    <path id="Path_156" data-name="Path 156" d="M11.833,16.667a1.833,1.833,0,1,1,1.833-1.833A1.835,1.835,0,0,1,11.833,16.667Zm0-2.292a.458.458,0,1,0,.458.458A.459.459,0,0,0,11.833,14.375Z" transform="translate(-0.583 -1.083)"/>
    <path id="Path_157" data-name="Path 157" d="M11.938,19.646a.688.688,0,0,1-.687-.687V16.438a.688.688,0,0,1,1.375,0v2.521A.688.688,0,0,1,11.938,19.646Z" transform="translate(-0.688 -1.313)"/>
  </g>
</svg>
