<svg xmlns="http://www.w3.org/2000/svg" width="67.763" height="60.004" viewBox="0 0 67.763 60.004">
  <g id="upload" transform="translate(0 -24)" opacity="0.4">
    <g id="Group_137" data-name="Group 137" transform="translate(0 24)">
      <g id="Group_136" data-name="Group 136" transform="translate(0 0)">
        <circle id="Ellipse_10" data-name="Ellipse 10" cx="4.655" cy="4.655" r="4.655" transform="translate(20.885 14.807)" fill="#e7c68e"/>
        <path id="Path_171" data-name="Path 171" d="M63.754,60.6a14.336,14.336,0,0,0-8.018-3.815V33.117a9.309,9.309,0,0,0-2.651-6.466A9.035,9.035,0,0,0,46.619,24H9.117a9.309,9.309,0,0,0-6.466,2.651A9.035,9.035,0,0,0,0,33.117v38.6a9.309,9.309,0,0,0,2.651,6.466,9.035,9.035,0,0,0,6.466,2.651H45.391A13.68,13.68,0,0,0,63.754,60.6ZM3.427,33.117a5.412,5.412,0,0,1,1.681-3.944,5.674,5.674,0,0,1,4.009-1.681h37.5a5.741,5.741,0,0,1,5.69,5.69V53.355l-9.57-9.57a1.736,1.736,0,0,0-2.457,0L25.864,58.269,16.1,48.441a1.736,1.736,0,0,0-2.457,0L3.427,58.787ZM9.052,77.538v-.129a5.673,5.673,0,0,1-4.009-1.681,5.9,5.9,0,0,1-1.616-4.009V63.7L14.872,52.191l9.764,9.764a1.8,1.8,0,0,0,2.457,0L41.511,47.471l9.44,9.5-.582.194a6.008,6.008,0,0,0-.841.259c-.259.065-.517.194-.776.259a1.936,1.936,0,0,0-.517.259,6.007,6.007,0,0,0-.647.323l-.97.582c-.194.129-.323.194-.517.323-.129.065-.194.129-.323.194a7.8,7.8,0,0,0-1.552,1.358,13.678,13.678,0,0,0-4.009,9.7,14.215,14.215,0,0,0,.323,2.845c.065.259.129.453.194.711.194.647.388,1.293.647,1.94v.065a11.86,11.86,0,0,0,.841,1.552Zm52.18,0a10.229,10.229,0,0,1-14.29.129c-.259-.259-.517-.582-.776-.841-.194-.194-.388-.453-.582-.647a6.14,6.14,0,0,1-.647-1.1c-.129-.259-.259-.453-.388-.711a5.462,5.462,0,0,1-.323-1.1c-.065-.259-.194-.582-.259-.841a10.7,10.7,0,0,1-.194-2.069,10.379,10.379,0,0,1,2.974-7.242,10,10,0,0,1,7.242-2.974,10.379,10.379,0,0,1,7.242,2.974,10.106,10.106,0,0,1,2.974,7.242A10.341,10.341,0,0,1,61.232,77.538Z" transform="translate(0 -24)" fill="#e7c68e"/>
        <path id="Path_172" data-name="Path 172" d="M305.551,264.917a2.254,2.254,0,0,0-.582-.388,1.886,1.886,0,0,0-.582-.129h-.129a1.886,1.886,0,0,0-.582.129,1.525,1.525,0,0,0-.582.388l-4.009,4.009a1.737,1.737,0,0,0,2.457,2.457l1.035-1.035v7.112a1.746,1.746,0,1,0,3.492,0v-7.112l1.035,1.035a1.737,1.737,0,0,0,2.457-2.457Z" transform="translate(-250.332 -225.54)" fill="#e7c68e"/>
      </g>
    </g>
  </g>
</svg>
