<svg xmlns="http://www.w3.org/2000/svg" xmlns:xlink="http://www.w3.org/1999/xlink" width="45.709" height="52" viewBox="0 0 45.709 52">
  <defs>
    <linearGradient id="linear-gradient" x1="1" x2="0" y2="1" gradientUnits="objectBoundingBox">
      <stop offset="0" stop-color="#9d7a54"/>
      <stop offset="1" stop-color="#e7c68e"/>
    </linearGradient>
  </defs>
  <g id="hoodie" transform="translate(0.5 0.5)">
    <path id="Path_136" data-name="Path 136" d="M76.712,41.351c-.028-20.175-.981-27.962-1.493-32.145l-.071-.579a3.486,3.486,0,0,0-2.491-2.915l-6.7-1.977V1.707A1.724,1.724,0,0,0,64.218,0H44.5A1.724,1.724,0,0,0,42.76,1.707V3.736l-6.7,1.976a3.486,3.486,0,0,0-2.491,2.915l-.071.58c-.512,4.183-1.465,11.97-1.493,32.144a1.693,1.693,0,0,0,.512,1.216,1.743,1.743,0,0,0,.384.285v2.034a1.724,1.724,0,0,0,1.737,1.707H38.5a1.733,1.733,0,0,0,.678.667v2.032A1.724,1.724,0,0,0,40.911,51H67.8a1.724,1.724,0,0,0,1.737-1.707V47.261a1.734,1.734,0,0,0,.678-.667h3.86a1.724,1.724,0,0,0,1.737-1.707V42.853a1.749,1.749,0,0,0,.384-.285A1.693,1.693,0,0,0,76.712,41.351Zm-1.681,0a.065.065,0,0,1-.02.047.049.049,0,0,1-.036.017H70.437V16.962a5.24,5.24,0,0,1,.368-1.933L73.4,8.464a1.8,1.8,0,0,1,.082.359l.071.581C74.059,13.553,75,21.277,75.031,41.354ZM40.014,45.823a.056.056,0,0,1-.056-.055V16.962a6.863,6.863,0,0,0-.482-2.531L36.658,7.293c0-.01-.009-.019-.013-.028l6.818-2.011L49.944,9.5a.814.814,0,0,0-.013.137V17.76a2.6,2.6,0,0,0-1.793,2.453v1.762a.833.833,0,0,0,.84.826h3.586a.833.833,0,0,0,.84-.826V20.213a2.6,2.6,0,0,0-1.793-2.453V10.594l2.279,1.494.03.017c.013.008.026.017.04.025l.024.011.038.017q.035.015.072.027l.036.011a.85.85,0,0,0,.087.019l.023,0a.852.852,0,0,0,.117.009c.019,0,.038,0,.058,0l.048,0c.022,0,.044-.007.066-.012l.042-.009c.022-.006.044-.013.066-.02l.04-.015c.022-.009.043-.018.064-.029l.013-.006.022-.014c.016-.009.032-.016.048-.026L57.1,10.594V17.76a2.6,2.6,0,0,0-1.793,2.453v1.762a.833.833,0,0,0,.84.826h3.586a.833.833,0,0,0,.84-.826V20.213a2.6,2.6,0,0,0-1.793-2.453V9.638a.814.814,0,0,0-.013-.137l6.481-4.247L72.07,7.264c0,.01-.009.019-.013.029l-2.818,7.138a6.863,6.863,0,0,0-.482,2.531V45.768a.056.056,0,0,1-.056.055ZM57.943,19.276a.946.946,0,0,1,.952.936v.936h-1.9v-.936A.946.946,0,0,1,57.943,19.276ZM55.5,9.66a5.344,5.344,0,0,1,2.379-2.846l6.4-3.669v.763Zm1.532-4.273a7.017,7.017,0,0,0-2.672,2.731,7.017,7.017,0,0,0-2.672-2.731L45.172,1.652H63.543ZM50.771,19.276a.946.946,0,0,1,.952.936v.936h-1.9v-.936A.946.946,0,0,1,50.771,19.276ZM44.44,3.909V3.146l6.4,3.669A5.344,5.344,0,0,1,53.217,9.66ZM35.165,9.4l.071-.582a1.793,1.793,0,0,1,.082-.358l2.592,6.564a5.241,5.241,0,0,1,.368,1.933V41.417H33.741A.049.049,0,0,1,33.7,41.4a.065.065,0,0,1-.02-.047C33.711,21.278,34.657,13.554,35.165,9.4ZM34.58,44.887V43.069h3.7v1.873H34.636A.056.056,0,0,1,34.58,44.887ZM67.8,49.348H40.911a.056.056,0,0,1-.056-.055V47.475H67.86v1.818A.056.056,0,0,1,67.8,49.348Zm6.276-4.406H70.437V43.069h3.7v1.817A.056.056,0,0,1,74.08,44.942Z" transform="translate(-32.003 0)" stroke="#ad8955" stroke-width="1" fill="url(#linear-gradient)"/>
    <path id="Path_137" data-name="Path 137" d="M157.282,272.705a.957.957,0,0,0-.924-.705h-16.34a.958.958,0,0,0-.924.705l-3.064,11.233a.962.962,0,0,0-.034.252v3.064a.957.957,0,0,0,.957.957h22.467a.957.957,0,0,0,.957-.957v-3.064a.961.961,0,0,0-.034-.252Zm1.183,13.592H137.912v-1.978l2.838-10.4h14.877l2.838,10.4V286.3Z" transform="translate(-125.834 -245.382)" stroke="#ad8955" stroke-width="1" fill="url(#linear-gradient)"/>
  </g>
</svg>
