<svg id="group" xmlns="http://www.w3.org/2000/svg" xmlns:xlink="http://www.w3.org/1999/xlink" width="56.889" height="47.171" viewBox="0 0 56.889 47.171">
  <defs>
    <linearGradient id="linear-gradient" x1="1" x2="0" y2="1" gradientUnits="objectBoundingBox">
      <stop offset="0" stop-color="#9d7a54"/>
      <stop offset="1" stop-color="#e7c68e"/>
    </linearGradient>
  </defs>
  <g id="Group_54" data-name="Group 54" transform="translate(0 20.661)">
    <g id="Group_53" data-name="Group 53">
      <path id="Path_145" data-name="Path 145" d="M48.555,233.955H42.987a8.311,8.311,0,0,0-2.19.294,8.34,8.34,0,0,0-7.431-4.569H23.523a8.34,8.34,0,0,0-7.431,4.569,8.311,8.311,0,0,0-2.19-.294H8.333A8.343,8.343,0,0,0,0,242.288v8.9a5.006,5.006,0,0,0,5,5H51.889a5.006,5.006,0,0,0,5-5v-8.9A8.343,8.343,0,0,0,48.555,233.955Zm-33.366,4.059v14.843H5a1.669,1.669,0,0,1-1.667-1.667v-8.9a5.006,5.006,0,0,1,5-5H13.9a4.984,4.984,0,0,1,1.308.175C15.2,237.645,15.189,237.828,15.189,238.014Zm23.177,14.843H18.523V238.013a5.006,5.006,0,0,1,5-5h9.843a5.006,5.006,0,0,1,5,5Zm15.189-1.667a1.669,1.669,0,0,1-1.667,1.667H41.7V238.013c0-.185-.008-.369-.02-.551a4.989,4.989,0,0,1,1.308-.175h5.569a5.006,5.006,0,0,1,5,5Z" transform="translate(0 -229.68)" fill="url(#linear-gradient)"/>
    </g>
  </g>
  <g id="Group_56" data-name="Group 56" transform="translate(3.713 9.197)">
    <g id="Group_55" data-name="Group 55">
      <path id="Path_146" data-name="Path 146" d="M40.819,126.5a7.405,7.405,0,1,0,7.405,7.405A7.413,7.413,0,0,0,40.819,126.5Zm0,11.477a4.072,4.072,0,1,1,4.072-4.072A4.076,4.076,0,0,1,40.819,137.981Z" transform="translate(-33.414 -126.504)" fill="url(#linear-gradient)"/>
    </g>
  </g>
  <g id="Group_58" data-name="Group 58" transform="translate(18.551)">
    <g id="Group_57" data-name="Group 57">
      <path id="Path_147" data-name="Path 147" d="M176.855,43.729a9.893,9.893,0,1,0,9.893,9.893A9.9,9.9,0,0,0,176.855,43.729Zm0,16.453a6.56,6.56,0,1,1,6.56-6.56A6.567,6.567,0,0,1,176.855,60.182Z" transform="translate(-166.962 -43.729)" fill="url(#linear-gradient)"/>
    </g>
  </g>
  <g id="Group_60" data-name="Group 60" transform="translate(38.366 9.197)">
    <g id="Group_59" data-name="Group 59">
      <path id="Path_148" data-name="Path 148" d="M352.7,126.5a7.405,7.405,0,1,0,7.405,7.405A7.414,7.414,0,0,0,352.7,126.5Zm0,11.477a4.072,4.072,0,1,1,4.072-4.072A4.076,4.076,0,0,1,352.7,137.981Z" transform="translate(-345.294 -126.504)" fill="url(#linear-gradient)"/>
    </g>
  </g>
</svg>
