<svg xmlns="http://www.w3.org/2000/svg" xmlns:xlink="http://www.w3.org/1999/xlink" width="65" height="52.2" viewBox="0 0 65 52.2">
  <defs>
    <linearGradient id="linear-gradient" x1="1" x2="0" y2="1" gradientUnits="objectBoundingBox">
      <stop offset="0" stop-color="#9d7a54"/>
      <stop offset="1" stop-color="#e7c68e"/>
    </linearGradient>
  </defs>
  <g id="gym" transform="translate(0.5 0.5)">
    <g id="Group_40" data-name="Group 40">
      <path id="Path_138" data-name="Path 138" d="M60.8,56.533H58.667V51.2a3.2,3.2,0,0,0-3.2-3.2H51.2A3.2,3.2,0,0,0,48,51.2v8.533H45.489l-.235-.6A7.424,7.424,0,0,0,38.305,54.4h-.1a3.171,3.171,0,0,0-5.137-1.3,3.151,3.151,0,0,0-4.267,0,3.151,3.151,0,0,0-4.267,0A3.186,3.186,0,0,0,19.2,55.467v4.267H16V51.2A3.2,3.2,0,0,0,12.8,48H8.533a3.2,3.2,0,0,0-3.2,3.2v5.333H3.2a3.2,3.2,0,0,0-3.2,3.2V70.4a3.2,3.2,0,0,0,3.2,3.2H5.333v5.333a3.2,3.2,0,0,0,3.2,3.2H12.8a3.2,3.2,0,0,0,3.2-3.2V70.4h2.419l.831,2.629a1.071,1.071,0,0,0,.173.332l2.847,3.683L20.446,96.208a2.731,2.731,0,0,0,2.72,2.992h14.46a2.734,2.734,0,0,0,2.719-3.006L38.481,77.558a.6.6,0,0,1,.206-.514l5.853-5.017A3.777,3.777,0,0,0,45.63,70.4H48v8.533a3.2,3.2,0,0,0,3.2,3.2h4.267a3.2,3.2,0,0,0,3.2-3.2V73.6H60.8A3.2,3.2,0,0,0,64,70.4V59.733A3.2,3.2,0,0,0,60.8,56.533ZM5.333,71.467H3.2A1.068,1.068,0,0,1,2.133,70.4V59.733A1.068,1.068,0,0,1,3.2,58.667H5.333ZM13.867,60.8V78.933A1.068,1.068,0,0,1,12.8,80H8.533a1.068,1.068,0,0,1-1.067-1.067V51.2a1.068,1.068,0,0,1,1.067-1.067H12.8A1.068,1.068,0,0,1,13.867,51.2Zm20.267-5.333a1.067,1.067,0,0,1,2.133,0v6.286a1.234,1.234,0,0,1-.486.985,1.089,1.089,0,0,1-.093.063.843.843,0,0,1-.18.07.989.989,0,0,1-.211.043,1.495,1.495,0,0,1-.435-.049,1.044,1.044,0,0,1-.241-.127,1.09,1.09,0,0,1-.137-.092,1.051,1.051,0,0,1-.35-.779v-6.4Zm-4.267,0a1.067,1.067,0,0,1,2.133,0v6.4a1.067,1.067,0,1,1-2.133,0Zm-4.267,0a1.067,1.067,0,0,1,2.133,0v6.4a1.067,1.067,0,0,1-2.133,0ZM21.333,60.8V55.467a1.067,1.067,0,0,1,2.133,0v6.4a.769.769,0,0,1-.167.539,1.084,1.084,0,0,1-.183.241,1.059,1.059,0,0,1-.134.091,1.048,1.048,0,0,1-.244.128,1.06,1.06,0,0,1-.175.035,1.1,1.1,0,0,1-.259.013.97.97,0,0,1-.209-.043.925.925,0,0,1-.182-.071.754.754,0,0,1-.091-.062,1.237,1.237,0,0,1-.487-.986ZM16,68.267v-6.4h3.2a3.189,3.189,0,0,0,1.58,2.743c.058.035.117.064.177.1a3.007,3.007,0,0,0,.291.137,2.921,2.921,0,0,0,.348.108c.07.018.139.042.211.055.022,0,.042.013.064.017.075.013.148.005.223.013.1.01.2.031.306.031.031,0,.06-.009.09-.01.1,0,.193-.018.289-.029a3.114,3.114,0,0,0,.377-.062c.092-.022.179-.053.269-.083a3.315,3.315,0,0,0,.35-.139c.086-.042.17-.089.253-.138a3.3,3.3,0,0,0,.307-.208c.045-.034.1-.058.139-.094l.062-.053c.062.055.134.1.2.149s.13.1.2.149a3.333,3.333,0,0,0,.316.172c.071.035.139.076.212.106a3.158,3.158,0,0,0,.385.119c.066.017.128.043.2.057a3.1,3.1,0,0,0,1.244,0c.069-.014.132-.039.2-.058a3.3,3.3,0,0,0,.382-.118c.076-.031.144-.071.217-.108a3.262,3.262,0,0,0,.313-.17c.071-.046.135-.1.2-.15s.138-.094.2-.149c.062.055.133.1.2.149s.131.106.2.151a3.263,3.263,0,0,0,.313.17c.073.036.141.077.217.108a3.048,3.048,0,0,0,.382.118c.067.018.131.044.2.058a3.293,3.293,0,0,0,.621.062A3.227,3.227,0,0,0,31.555,65c.067-.014.13-.038.2-.057a3.292,3.292,0,0,0,.385-.119c.075-.03.142-.07.213-.107a3.091,3.091,0,0,0,.315-.172c.07-.046.133-.1.2-.149s.139-.094.2-.149c.02.018.041.036.062.053.043.036.094.06.138.094a3.3,3.3,0,0,0,.31.21c.081.048.162.094.247.134a3.247,3.247,0,0,0,.363.144c.084.029.167.058.254.079a3.29,3.29,0,0,0,.4.065c.09.011.177.025.268.027.032,0,.062.01.095.01a2.99,2.99,0,0,0,.311-.032c.073-.006.145,0,.219-.012.025,0,.047-.013.071-.017.048-.01.094-.023.141-.035a2.9,2.9,0,0,0,.4-.124c.07-.027.139-.055.206-.087s.147-.077.219-.118a3.194,3.194,0,0,0,1.557-2.089,1.038,1.038,0,0,1,.079.381v3.825l-1.508,1.508Zm27.733.876a1.669,1.669,0,0,1-.581,1.266L37.3,75.424a2.736,2.736,0,0,0-.942,2.348l1.863,18.636a.6.6,0,0,1-.6.659H23.166a.6.6,0,0,1-.6-.657l1.865-19.584a1.072,1.072,0,0,0-.218-.754l-2.989-3.866L20.656,70.4H36.892a2.145,2.145,0,0,0,1.508-.625l1.508-1.508a2.119,2.119,0,0,0,.625-1.508V62.933a3.2,3.2,0,0,0-2.133-3v-3.4a5.3,5.3,0,0,1,4.868,3.381l.4,1.008a.611.611,0,0,1,.064.269ZM48,68.267H45.867v-6.4H48ZM56.533,57.6V78.933A1.068,1.068,0,0,1,55.467,80H51.2a1.068,1.068,0,0,1-1.067-1.067V51.2A1.068,1.068,0,0,1,51.2,50.133h4.267A1.068,1.068,0,0,1,56.533,51.2Zm5.333,12.8A1.068,1.068,0,0,1,60.8,71.467H58.667v-12.8H60.8a1.068,1.068,0,0,1,1.067,1.067Z" transform="translate(0 -48)" stroke="#ad8955" stroke-width="1" fill="url(#linear-gradient)"/>
    </g>
  </g>
</svg>
