<svg xmlns="http://www.w3.org/2000/svg" xmlns:xlink="http://www.w3.org/1999/xlink" width="57.889" height="52.2" viewBox="0 0 57.889 52.2">
  <defs>
    <linearGradient id="linear-gradient" x1="1" x2="0" y2="1" gradientUnits="objectBoundingBox">
      <stop offset="0" stop-color="#9d7a54"/>
      <stop offset="1" stop-color="#e7c68e"/>
    </linearGradient>
  </defs>
  <path id="work" d="M54.044,8.533H41.719V4.741A4.746,4.746,0,0,0,36.978,0H19.911A4.746,4.746,0,0,0,15.17,4.741V8.533H2.844A2.845,2.845,0,0,0,0,11.378V32.483A2.857,2.857,0,0,0,1.9,35.16v13.2A2.845,2.845,0,0,0,4.741,51.2H52.148a2.845,2.845,0,0,0,2.844-2.844V35.161a2.858,2.858,0,0,0,1.9-2.678V11.378A2.845,2.845,0,0,0,54.044,8.533ZM17.067,4.741A2.845,2.845,0,0,1,19.911,1.9H36.978a2.845,2.845,0,0,1,2.844,2.844V8.533h-1.9V4.741s-.425-.948-.948-.948H19.911a.948.948,0,0,0-.948.948V8.533h-1.9ZM36.03,8.533H20.859V5.689H36.03ZM53.1,48.356a.948.948,0,0,1-.948.948H4.741a.948.948,0,0,1-.948-.948V35.486l20.859,2.877V40.77A2.845,2.845,0,0,0,27.5,43.615h1.9a2.845,2.845,0,0,0,2.844-2.844V38.363L53.1,35.486ZM30.341,40.77a.948.948,0,0,1-.948.948H27.5a.948.948,0,0,1-.948-.948V35.081a.948.948,0,0,1,.948-.948h1.9a.948.948,0,0,1,.948.948Zm24.652-8.287a.948.948,0,0,1-.815.94l-.263.036L32.237,36.449V35.081a2.845,2.845,0,0,0-2.844-2.844H27.5a2.845,2.845,0,0,0-2.844,2.844v1.367L2.713,33.423a.948.948,0,0,1-.816-.94V11.378a.948.948,0,0,1,.948-.948h51.2a.948.948,0,0,1,.948.948Zm0,0" transform="translate(0.5 0.5)" stroke="#ad8955" stroke-width="1" fill="url(#linear-gradient)"/>
</svg>
